<svg xmlns="http://www.w3.org/2000/svg" style="display:none">
    <!-- MENU -->
    <symbol id="menu" viewBox="0 -960 960 960" fill="currentColor">
        <path d="M160-240q-17 0-28.5-11.5T120-280q0-17 11.5-28.5T160-320h640q17 0 28.5 11.5T840-280q0 17-11.5 28.5T800-240H160Zm0-200q-17 0-28.5-11.5T120-480q0-17 11.5-28.5T160-520h640q17 0 28.5 11.5T840-480q0 17-11.5 28.5T800-440H160Zm0-200q-17 0-28.5-11.5T120-680q0-17 11.5-28.5T160-720h640q17 0 28.5 11.5T840-680q0 17-11.5 28.5T800-640H160Z"/>
    </symbol>

    <!-- SEARCH -->
    <symbol id="search" viewBox="0 -960 960 960" fill="currentColor">
        <path d="M380-320q-109 0-184.5-75.5T120-580q0-109 75.5-184.5T380-840q109 0 184.5 75.5T640-580q0 44-14 83t-38 69l224 224q11 11 11 28t-11 28q-11 11-28 11t-28-11L532-372q-30 24-69 38t-83 14Zm0-80q75 0 127.5-52.5T560-580q0-75-52.5-127.5T380-760q-75 0-127.5 52.5T200-580q0 75 52.5 127.5T380-400Z"/>
    </symbol>

    <!-- STAR -->
    <symbol id="star" viewBox="0 -960 960 960" fill="currentColor">
        <path d="m384-334 96-74 96 74-36-122 90-64H518l-38-124-38 124H330l90 64-36 122Zm96 26L332-195q-11 9-24 8.5t-23-7.5q-10-7-15.5-19t-.5-26l57-185-145-103q-12-8-15-21t1-24q4-11 14-19.5t24-8.5h179l58-192q5-14 15.5-21.5T480-821q12 0 22.5 7.5T518-792l58 192h179q14 0 24 8.5t14 19.5q4 11 1 24t-15 21L634-424l57 185q5 14-.5 26T675-194q-10 7-23 7.5t-24-8.5L480-308Zm0-181Z"/>
    </symbol>

    <symbol id="star-filled" viewBox="0 -960 960 960" fill="currentColor">
        <path d="M480-308 332-195q-11 9-24 8.5t-23-7.5q-10-7-15.5-19t-.5-26l57-185-145-103q-12-8-15-21t1-24q4-11 14-19.5t24-8.5h179l58-192q5-14 15.5-21.5T480-821q12 0 22.5 7.5T518-792l58 192h179q14 0 24 8.5t14 19.5q4 11 1 24t-15 21L634-424l57 185q5 14-.5 26T675-194q-10 7-23 7.5t-24-8.5L480-308Z"/>
    </symbol>
</svg>
</svg>
