<svg xmlns="http://www.w3.org/2000/svg" style="display:none">
    <!-- MENU -->
    <symbol id="menu" viewBox="0 -960 960 960" fill="currentColor">
        <path d="M160-240q-17 0-28.5-11.5T120-280q0-17 11.5-28.5T160-320h640q17 0 28.5 11.5T840-280q0 17-11.5 28.5T800-240H160Zm0-200q-17 0-28.5-11.5T120-480q0-17 11.5-28.5T160-520h640q17 0 28.5 11.5T840-480q0 17-11.5 28.5T800-440H160Zm0-200q-17 0-28.5-11.5T120-680q0-17 11.5-28.5T160-720h640q17 0 28.5 11.5T840-680q0 17-11.5 28.5T800-640H160Z"/>
    </symbol>

    <!-- SEARCH -->
    <symbol id="search" viewBox="0 -960 960 960" fill="currentColor">
        <path d="M380-320q-109 0-184.5-75.5T120-580q0-109 75.5-184.5T380-840q109 0 184.5 75.5T640-580q0 44-14 83t-38 69l224 224q11 11 11 28t-11 28q-11 11-28 11t-28-11L532-372q-30 24-69 38t-83 14Zm0-80q75 0 127.5-52.5T560-580q0-75-52.5-127.5T380-760q-75 0-127.5 52.5T200-580q0 75 52.5 127.5T380-400Z"/>
    </symbol>

    <!-- STAR -->
    <symbol id="star" viewBox="0 -960 960 960" fill="currentColor">
        <path d="m384-334 96-74 96 74-36-122 90-64H518l-38-124-38 124H330l90 64-36 122Zm96 26L332-195q-11 9-24 8.5t-23-7.5q-10-7-15.5-19t-.5-26l57-185-145-103q-12-8-15-21t1-24q4-11 14-19.5t24-8.5h179l58-192q5-14 15.5-21.5T480-821q12 0 22.5 7.5T518-792l58 192h179q14 0 24 8.5t14 19.5q4 11 1 24t-15 21L634-424l57 185q5 14-.5 26T675-194q-10 7-23 7.5t-24-8.5L480-308Zm0-181Z"/>
    </symbol>

    <symbol id="star-filled" viewBox="0 -960 960 960" fill="currentColor">
        <path d="M480-308 332-195q-11 9-24 8.5t-23-7.5q-10-7-15.5-19t-.5-26l57-185-145-103q-12-8-15-21t1-24q4-11 14-19.5t24-8.5h179l58-192q5-14 15.5-21.5T480-821q12 0 22.5 7.5T518-792l58 192h179q14 0 24 8.5t14 19.5q4 11 1 24t-15 21L634-424l57 185q5 14-.5 26T675-194q-10 7-23 7.5t-24-8.5L480-308Z"/>
    </symbol>

    <!-- CLOSE -->
    <symbol id="close" viewBox="0 -960 960 960" fill="currentColor">
        <path d="M480-424 284-228q-11 11-28 11t-28-11q-11-11-11-28t11-28l196-196-196-196q-11-11-11-28t11-28q11-11 28-11t28 11l196 196 196-196q11-11 28-11t28 11q11 11 11 28t-11 28L536-480l196 196q11 11 11 28t-11 28q-11 11-28 11t-28-11L480-424Z"/>
    </symbol>

    <!-- USER -->
    <symbol id="user" viewBox="0 -960 960 960" fill="currentColor">
        <path d="M367-527q-47-47-47-113t47-113q47-47 113-47t113 47q47 47 47 113t-47 113q-47 47-113 47t-113-47ZM160-240v-32q0-34 17.5-62.5T224-378q62-31 126-46.5T480-440q66 0 130 15.5T736-378q29 15 46.5 43.5T800-272v32q0 33-23.5 56.5T720-160H240q-33 0-56.5-23.5T160-240Zm80 0h480v-32q0-11-5.5-20T700-306q-54-27-109-40.5T480-360q-56 0-111 13.5T260-306q-9 5-14.5 14t-5.5 20v32Zm296.5-343.5Q560-607 560-640t-23.5-56.5Q513-720 480-720t-56.5 23.5Q400-673 400-640t23.5 56.5Q447-560 480-560t56.5-23.5ZM480-640Zm0 400Z"/>
    </symbol>

    <!-- PASSWORD -->
    <symbol id="password" viewBox="0 -960 960 960" fill="currentColor">
        <path d="M444-360h72q9 0 15.5-7.5T536-384l-19-105q20-10 31.5-29t11.5-42q0-33-23.5-56.5T480-640q-33 0-56.5 23.5T400-560q0 23 11.5 42t31.5 29l-19 105q-2 9 4.5 16.5T444-360Zm23 275q-6-1-12-3-135-45-215-166.5T160-516v-189q0-25 14.5-45t37.5-29l240-90q14-5 28-5t28 5l240 90q23 9 37.5 29t14.5 45v189q0 140-80 261.5T505-88q-6 2-12 3t-13 1q-7 0-13-1Zm13-79q104-33 172-132t68-220v-189l-240-90-240 90v189q0 121 68 220t172 132Zm0-316Z"/>
    </symbol>

    <!-- VISIBILITY -->
    <symbol id="visibility" viewBox="0 -960 960 960" fill="currentColor">
        <path d="M607.5-372.5Q660-425 660-500t-52.5-127.5Q555-680 480-680t-127.5 52.5Q300-575 300-500t52.5 127.5Q405-320 480-320t127.5-52.5Zm-204-51Q372-455 372-500t31.5-76.5Q435-608 480-608t76.5 31.5Q588-545 588-500t-31.5 76.5Q525-392 480-392t-76.5-31.5ZM235.5-272Q125-344 61-462q-5-9-7.5-18.5T51-500q0-10 2.5-19.5T61-538q64-118 174.5-190T480-800q134 0 244.5 72T899-538q5 9 7.5 18.5T909-500q0 10-2.5 19.5T899-462q-64 118-174.5 190T480-200q-134 0-244.5-72ZM480-500Zm207.5 160.5Q782-399 832-500q-50-101-144.5-160.5T480-720q-113 0-207.5 59.5T128-500q50 101 144.5 160.5T480-280q113 0 207.5-59.5Z"/>
    </symbol>

    <symbol id="visibility-off" viewBox="0 -960 960 960" fill="currentColor">
        <path d="M607.5-372.5Q660-425 660-500t-52.5-127.5Q555-680 480-680t-127.5 52.5Q300-575 300-500t52.5 127.5Q405-320 480-320t127.5-52.5Zm-204-51Q372-455 372-500t31.5-76.5Q435-608 480-608t76.5 31.5Q588-545 588-500t-31.5 76.5Q525-392 480-392t-76.5-31.5ZM235.5-272Q125-344 61-462q-5-9-7.5-18.5T51-500q0-10 2.5-19.5T61-538q64-118 174.5-190T480-800q134 0 244.5 72T899-538q5 9 7.5 18.5T909-500q0 10-2.5 19.5T899-462q-64 118-174.5 190T480-200q-134 0-244.5-72ZM480-500Zm207.5 160.5Q782-399 832-500q-50-101-144.5-160.5T480-720q-113 0-207.5 59.5T128-500q50 101 144.5 160.5T480-280q113 0 207.5-59.5Z"/>
    </symbol>
</svg>
</svg>
